<svg width="61" height="28" viewBox="0 0 61 28" fill="none" xmlns="http://www.w3.org/2000/svg">
  <path fill-rule="evenodd" clip-rule="evenodd" d="M1.27393 3.26733L1.36187 3.34348C2.0443 3.99653 2.64045 4.82078 3.16639 5.65717C3.45656 6.11874 4.48463 7.92629 4.59354 8.36277L4.95656 9.15363L5.96531 11.2881L6.91695 13.2138C6.97103 13.2825 7.09146 13.5431 7.26293 13.9436C7.10146 13.6008 6.98296 13.3508 6.92082 13.2226L7.60249 14.7543C8.58373 17.1281 10.3885 21.6517 11.8418 24.2805L12.7444 26.3087C12.7737 26.4228 12.8306 26.5258 12.8587 26.624C18.1525 27.8479 20.8883 23.6109 22.4113 20.5537C24.2282 16.9065 26.8392 10.5733 27.4173 8.97044C26.4739 8.84656 24.3854 8.77772 23.5328 9.24826C23.6668 9.01872 24.7518 8.25737 25.0276 8.11563C26.5682 7.32401 27.5979 7.03453 29.3443 7.03825L34.9492 7.05273C35.0488 7.05397 35.1411 7.14557 35.218 7.15095C35.6079 7.53569 35.7433 7.9772 35.7433 8.65446C35.7433 9.33179 35.4938 10.0088 34.9963 10.4012C34.9359 10.4003 34.9557 10.3991 34.9179 10.3996L28.5745 10.6935C28.4589 10.7723 28.1828 11.5858 28.0996 11.7682C27.8911 12.2262 27.6407 12.5291 27.5295 13.0188C27.6251 13.0654 28.0239 13.3471 28.1201 13.4361C28.5333 13.8181 29.277 14.3425 29.7498 14.6384C31.3879 15.6633 33.0963 16.0419 34.9963 15.8603C36.0136 15.763 35.3689 15.5197 36.6904 16.7837C39.6203 19.8815 42.55 22.9793 45.4799 26.0771C45.7624 26.0898 46.0515 26.0476 46.3339 26.0603C46.3126 26.0013 46.2305 25.9377 46.1026 25.8082L35.2976 14.8761L35.5336 14.8543C35.7991 14.832 36.063 14.7804 36.3138 14.7112C37.0377 14.5117 37.6464 14.2628 38.2742 13.8538C38.5028 13.7048 38.6971 13.5284 38.8887 13.3571C40.412 12.231 40.94 10.263 40.8512 8.29538C40.8319 7.86732 40.7198 7.37492 40.647 6.95576C40.6203 6.75538 40.4274 6.27594 40.3355 6.08709C40.1231 5.65075 39.828 5.21131 39.5294 4.82836C39.3389 4.58392 39.0625 4.34982 38.8171 4.15559C38.6046 3.98749 38.2745 3.78175 37.5627 3.52778L37.5629 3.52792C37.3887 3.46198 37.1986 3.40804 36.9857 3.36638C36.5132 3.27402 36.1701 3.29085 35.6877 3.29078C33.8615 3.29064 31.8856 3.25926 30.0834 3.28671C29.5333 3.29506 27.7559 3.32651 27.3117 3.30058C26.5157 3.28257 25.7826 3.27458 25.0363 3.55965C24.2026 3.87797 23.4165 4.52819 22.9789 5.28636C22.3903 6.30615 20.6601 9.96802 20.1603 11.0364C19.3136 12.8456 17.4705 16.1571 17.142 16.918L15.8186 17.0529L12.5427 10.2574C11.9491 8.89705 11.1699 7.16405 10.2537 5.98893C10.1743 5.88699 9.71071 5.33671 9.69788 5.28181C9.56765 5.19697 9.3968 4.99281 9.27389 4.87645C8.47385 4.11883 7.70782 3.82051 6.67492 3.47343C5.96931 3.25844 5.0934 3.28485 4.07071 3.28023L1.27393 3.26733Z" fill="#F8F8F9" />
  <path fill-rule="evenodd" clip-rule="evenodd" d="M58.2294 4.9737C57.6366 6.02873 57.419 5.84154 56.3194 5.82857C55.3567 5.81726 52.3845 5.69925 52.3163 5.7667C51.2337 11.3575 48.9287 17.2687 47.23 22.8192L47.2484 22.8259L47.1159 23.2555C44.3959 22.3721 42.2516 20.0821 41.7267 19.3018C42.0931 18.1255 45.7476 6.5188 46.0025 5.57557C46.0231 5.49936 45.8871 5.45473 45.7704 5.4757C45.6586 5.49577 45.5497 5.59675 45.4754 5.68111C45.3844 5.78457 45.3574 5.78726 45.2264 5.78719L42.8301 5.82016L42.2538 6.24732C42.0432 4.79919 40.6305 2.7794 39.1569 2.26037C40.7147 3.3868 41.4148 4.28809 41.7487 6.36044C41.7757 6.52812 41.8107 6.72338 41.9016 6.79235H44.6486L40.7599 18.602L40.65 18.8416L37.4122 15.5507C37.723 15.3483 38.0337 15.1457 38.3445 14.9432C39.0424 14.4128 39.3007 14.0867 39.8195 13.3999C40.8933 11.978 41.3608 11.2954 41.4393 8.93864C41.504 6.99811 40.3965 4.40466 38.5872 3.40639C38.3923 3.29892 38.1545 3.18497 37.912 3.08669C37.349 2.85852 36.338 2.58152 35.7416 2.58118L26.0213 2.57627C25.6886 2.60538 25.4459 2.62711 25.1201 2.71981C24.8745 2.78968 24.6369 2.88018 24.4064 2.99378C23.5295 3.42653 22.7974 4.08813 22.2918 4.9439C22.0322 5.38334 21.5636 6.41886 21.2816 6.98224C20.9759 7.59294 20.3748 8.80048 20.0763 9.31821C19.8717 9.67315 19.7589 9.98775 19.5624 10.344C19.3162 10.7904 19.0912 11.2296 18.8584 11.6722C18.7446 11.8886 18.6272 12.1216 18.5153 12.3455L18.2688 12.8379C18.1641 13.0355 18.0746 13.2199 17.9654 13.4276C17.8979 13.5557 17.832 13.7123 17.7597 13.8378C17.5342 14.2299 16.5637 16.2251 16.4647 16.2688C16.4243 16.3065 16.3788 16.3131 16.326 16.2756C16.2268 16.1304 16.1114 15.8218 16.0171 15.6545L15.1176 13.721C14.9234 13.2904 14.7178 12.8576 14.5289 12.4312C13.9887 11.2123 13.2743 9.82083 12.706 8.61894C12.2022 7.5539 11.533 5.96238 10.63 5.05978C10.3377 4.71215 10.0561 4.44577 9.67529 4.13607C9.15481 3.66084 7.83918 3.05434 7.1911 2.86349C6.65847 2.70664 6.09757 2.63346 5.54095 2.63525L0.122361 2.60497L0 2.6089C0.00662157 2.68519 1.4962 4.50901 1.7292 4.87658C2.14911 5.49342 3.83651 8.68281 4.13717 9.45864C4.23436 9.68798 4.3532 9.92905 4.46335 10.1486L5.96286 13.2856C5.46611 12.2175 4.9946 11.0553 4.46246 9.99961C3.75471 8.53307 3.12511 6.78629 2.23354 5.45342C2.08538 5.21222 1.89777 4.96825 1.71361 4.68628C1.44426 4.29795 0.128431 2.73609 0.113532 2.68746L0.211752 2.68353L5.53591 2.71409C6.28574 2.7183 6.9192 2.85018 7.30125 2.9775C7.69282 3.10801 8.65895 3.5422 9.35056 3.98591C9.86283 4.31451 10.4198 4.91321 10.8057 5.38534C10.9544 5.5673 11.1009 5.75801 11.2223 5.92935C11.511 6.33671 11.8056 6.88271 12.0282 7.32208C12.9612 9.16371 14.786 13.2099 15.1033 13.8538C15.2251 14.1008 16.2329 16.3491 16.2834 16.3721C16.3438 16.4139 16.3952 16.4209 16.4444 16.4067C16.5389 16.3797 16.5485 16.3181 16.5909 16.236L18.2226 13.074C18.3257 12.9942 21.7924 6.11937 21.9977 5.69435C22.2846 5.35789 22.7043 4.9359 23.2353 4.53881C22.9432 4.88341 22.6521 5.31167 22.4544 5.69221C22.2902 6.00825 21.6764 7.07425 21.6169 7.31566L20.828 10.1754C21.4999 8.73096 22.2675 6.51873 22.9789 5.28622C23.3866 4.57985 24.0969 3.96722 24.8663 3.62938C25.2023 3.50157 25.5593 3.40108 25.9347 3.33948L26.3838 3.30169L35.6877 3.29065C36.1701 3.29072 36.5132 3.27389 36.9857 3.36624C37.7401 3.51371 38.5055 3.91866 39.1 4.39638C39.2767 4.53833 39.3898 4.64903 39.5294 4.82823C39.828 5.21118 40.1231 5.65062 40.3355 6.08695C40.64 6.70131 41.1795 9.0697 40.7625 10.897C40.5888 11.6574 40.0983 12.3929 39.6015 12.9865C39.4924 13.1128 39.3833 13.239 39.2742 13.3653C38.2915 14.2001 37.1631 14.8414 35.697 15.0333L46.0634 25.7616C46.1437 25.8448 46.2137 25.9368 46.2874 26.0242C44.987 26.0805 43.4264 26.1494 42.1748 25.8831C41.3221 25.6746 40.9068 25.6242 40.4165 25.4946C39.3108 25.2023 38.5386 24.7685 36.5897 23.0707C36.4369 22.7428 34.9323 21.1368 34.5306 20.6812C33.7896 19.8408 33.0454 19.0115 32.2953 18.1768C31.6978 17.512 30.2127 15.7004 29.5879 15.2214L25.8847 16.9567L25.2936 17.2369L26.4256 14.6884C26.4869 14.4486 27.2074 12.9307 27.3676 12.5875L28.2451 10.4805C30.2841 10.4468 32.6631 10.4188 34.7339 10.3913C34.9112 10.389 35.0863 10.3865 35.2587 10.3842C35.5905 10.3797 35.9638 10.1887 36.2131 9.93236C36.91 9.21571 36.7136 8.19502 35.9474 7.69765C35.625 7.48851 35.5131 7.49252 35.1528 7.4899L31.5368 7.46334C31.3913 7.4941 28.8014 7.39009 27.8034 7.51052C27.074 7.59846 26.3688 7.75379 25.6963 8.04997C24.9073 8.39753 24.5153 8.63598 23.8332 9.11784C24.1432 9.04162 24.6485 8.94216 24.968 8.91574C25.7829 8.83284 26.5982 8.86994 27.414 8.96954C25.6889 12.7658 24.5213 15.8526 22.8186 19.3923C21.9 21.3022 21.7063 22.9624 18.2433 25.7347C17.5686 26.2748 16.5119 26.6457 15.6602 26.8087C15.2724 26.8829 14.8283 26.9332 14.4204 26.9481C14.0408 26.9619 13.5804 26.9363 13.216 26.8918C13.7242 26.8979 14.6666 26.8529 14.7825 26.8055C13.7951 26.7452 13.1612 26.6254 12.8588 26.6238C12.7918 26.5086 12.838 26.543 12.7296 26.3009L6.91699 13.1959L5.96535 11.2703L3.89486 7.94837L5.15986 10.7266C5.25739 10.9477 5.76173 12.0223 5.77201 12.16C5.86306 12.2407 6.98728 14.6816 7.05777 14.9213L7.47224 15.802C7.52073 16.0118 8.00183 16.9458 8.12984 17.2116C8.79276 18.589 9.45071 20.0774 10.0933 21.4691C10.7401 22.8693 11.449 24.3512 12.0388 25.7736L12.3535 26.508L12.6665 27.1918C12.744 27.2881 12.7648 27.2804 12.9795 27.2807C16.8569 27.7575 20.6632 25.6734 22.8457 21.8634C22.9668 21.7793 24.0966 19.4256 24.2737 19.0714C24.4944 18.6299 24.3626 18.7327 24.7968 18.5475C26.3616 17.8455 27.8014 17.1423 29.3525 16.4104L34.7236 22.8519C35.1479 23.4155 36.2258 24.5455 36.7201 24.9935C37.8322 26.0013 39.2801 26.7963 40.3775 27.058C42.5915 27.5862 47.2199 27.2809 47.9448 27.2534C48.1346 27.2463 48.2207 27.2611 48.2207 27.0983C48.2095 27.057 48.1412 26.9512 48.0264 26.8243L42.6471 20.878L43.4755 21.6485C44.0244 22.159 44.4911 22.5792 45.1093 23.0136C45.656 23.3978 46.1656 23.6923 46.9287 24.0718C47.1247 24.1692 47.3729 24.2834 47.5432 24.2151L48.953 19.7794C50.4629 15.0289 52.8925 7.79849 53.3245 6.53735C53.3646 6.42037 53.3388 6.4381 53.4638 6.43624L57.4593 6.37471C57.7969 6.35202 58.0698 6.1562 58.2823 5.90451C58.9766 5.08192 60.195 2.3468 60.5955 1.3199C60.7071 1.03352 61 0.312115 61 0.0308365L58.1054 0L33.1446 0.0398019C32.9087 0.0769793 32.7762 0.184855 32.6611 0.293008C32.5719 0.376743 32.4703 0.471651 32.6783 0.513794C32.8209 0.542419 33.577 0.675403 33.5825 0.67899C34.8105 0.578701 35.8996 0.663673 37.1659 0.653879L58.5231 0.5429L60.3024 0.517519C60.2982 0.571664 60.0038 1.20416 59.9488 1.31887C59.3928 2.54151 58.8861 3.80451 58.2294 4.9737Z" fill="#2B2A29" />
  <path fill-rule="evenodd" clip-rule="evenodd" d="M40.5283 2.69381C40.9361 3.03517 41.3859 3.48751 41.5685 3.71416C42.4044 4.75126 42.4667 5.56696 42.6164 5.75671C43.0331 5.7914 43.572 5.7605 44.0021 5.75974C45.7518 5.75615 45.4062 5.75271 45.5949 5.58158C45.7656 5.4268 46.067 5.43239 46.128 5.68201C46.1849 5.91576 46.0263 6.28519 45.9979 6.48225C45.4445 8.27994 44.7507 10.2209 44.2915 12.0083C43.6713 14.4222 46.1231 17.6986 48.3533 18.5316L51.8148 7.46686L52.4972 5.52378L51.808 5.44432L46.2377 5.23891C46.0736 5.17242 45.8427 5.16601 45.6878 5.24878C45.4717 5.36424 45.5501 5.44459 45.2342 5.44039L43.2938 5.45384L42.8074 5.4499C42.7052 4.77506 42.3517 4.18243 41.9546 3.63642C40.8092 1.87191 39.0011 1.07553 36.6985 1.08257C37.7164 1.30046 39.952 2.2112 40.5283 2.69381Z" fill="#F8F8F9" />
  <path fill-rule="evenodd" clip-rule="evenodd" d="M32.7788 0.559622C33.7598 0.743854 34.8721 0.98458 35.7912 1.1526C36.3542 1.23965 36.6265 1.27213 37.4861 1.5003L60.3025 0.535279C52.4643 0.522657 40.617 0.572244 32.7788 0.559622Z" fill="#F8F8F9" />
  <path fill-rule="evenodd" clip-rule="evenodd" d="M39.1303 2.24202C40.9151 3.33651 41.3775 3.93611 42.4412 6.0137L44.1867 6.07254L42.9389 5.82057L45.2264 5.80498C45.3575 5.80505 45.4215 5.81229 45.5126 5.70883C45.5326 5.64061 45.6183 5.51515 45.7801 5.47563C45.5298 5.46252 45.4931 5.70276 45.3248 5.70586L42.6163 5.75677C42.5325 5.52053 42.3911 5.1451 42.3232 4.96949C42.1892 4.62262 41.9937 4.24174 41.5685 3.71422C41.228 3.29175 40.8684 2.93522 40.4899 2.6329C39.1061 1.52744 37.4689 1.14718 35.5853 0.922327C34.7934 0.827831 33.6208 0.678776 33.4951 0.666016C34.9735 0.971918 37.8963 1.31493 39.1303 2.24202Z" fill="#4C4B4B" />
  <path fill-rule="evenodd" clip-rule="evenodd" d="M40.8376 18.9496L41.1589 19.2998L43.5098 11.0938L40.8376 18.9496Z" fill="#4C4B4B" />
  <path fill-rule="evenodd" clip-rule="evenodd" d="M48.8169 17.9373C49.8808 15.048 51.535 9.68475 52.5686 6.74071L52.7336 6.23685C52.7503 6.18587 52.7669 6.1349 52.7836 6.084C52.749 5.95095 52.6867 5.98626 52.559 5.96143L51.6288 8.75498L48.8169 17.9373Z" fill="#E4E4E5" />
  <path fill-rule="evenodd" clip-rule="evenodd" d="M22.0569 21.2527C21.0796 23.3535 19.0025 24.942 17.3049 26.0107C18.612 25.4754 19.4907 24.8071 19.7629 24.5557C20.7318 23.661 21.6964 22.485 22.0462 21.7522C22.2048 21.4645 22.3805 21.1456 22.4988 20.8418C22.556 20.695 23.586 18.4735 23.5878 18.3577C23.0427 19.3564 22.2448 20.8489 22.0569 21.2527Z" fill="#4C4B4B" />
  <path fill-rule="evenodd" clip-rule="evenodd" d="M51.2288 9.51828C51.1314 9.85605 51.0438 10.1868 50.9325 10.5281C50.8331 10.8331 49.0339 17.1372 48.9697 17.438L52.2868 6.77874L52.4357 6.33165L52.4578 6.26536L55.2835 6.18397L52.9702 6.02892C54.9143 5.98657 56.6701 6.06306 57.5179 5.78268C56.8786 5.82634 52.4938 5.74723 52.3137 5.77985C52.1013 6.28868 51.4016 8.91917 51.2288 9.51828Z" fill="#91908F" />
  <path fill-rule="evenodd" clip-rule="evenodd" d="M42.2537 6.24735L44.2035 6.07367C43.695 6.03884 42.6245 6.0267 42.4412 6.01366C41.8175 4.18735 40.496 2.45871 38.1208 1.71558C39.4412 2.28324 41.1263 2.84421 42.2537 6.24735Z" fill="#CDCDCD" />
  <path fill-rule="evenodd" clip-rule="evenodd" d="M16.4997 26.5965C16.2013 26.6538 15.5451 26.8319 15.038 26.8291C15.4258 26.7817 16.316 26.5811 16.9811 26.1417C15.312 26.5979 13.872 26.5617 12.857 26.5467L12.4304 25.6443C12.4391 25.7649 12.7917 26.5263 12.8587 26.6415C13.1215 26.6959 13.2264 26.7586 14.2695 26.8408C14.134 26.8531 13.5097 26.9009 13.1708 26.8842C13.5009 26.9479 14.0497 26.9764 14.4114 26.9723C14.7665 26.9684 15.7976 26.9014 16.4997 26.5965Z" fill="#4C4B4B" />
  <path fill-rule="evenodd" clip-rule="evenodd" d="M35.8218 15.1448L35.5336 14.8542L35.2976 14.876C35.6177 15.3047 36.1047 15.7543 36.2859 15.9356L46.1013 25.8096L35.8218 15.1448Z" fill="#91908F" />
</svg>